<?xml version="1.0" encoding="UTF-8" standalone="no"?>
<!DOCTYPE svg PUBLIC "-//W3C//DTD SVG 1.1//EN"
 "http://www.w3.org/Graphics/SVG/1.1/DTD/svg11.dtd">
<!-- Generated by graphviz version 2.48.0 (20210717.1556)
 -->
<!-- Pages: 1 -->
<svg width="266pt" height="190pt"
 viewBox="0.00 0.00 265.66 190.00" xmlns="http://www.w3.org/2000/svg" xmlns:xlink="http://www.w3.org/1999/xlink">
<g id="graph0" class="graph" transform="scale(1 1) rotate(0) translate(4 186)">
<polygon fill="white" stroke="transparent" points="-4,4 -4,-186 261.66,-186 261.66,4 -4,4"/>
<!-- 1 -->
<g id="node1" class="node">
<title>1</title>
<polygon fill="none" stroke="blue" stroke-dasharray="5,2" points="108.16,-38 44.16,-38 44.16,0 108.16,0 108.16,-38"/>
<text text-anchor="middle" x="76.16" y="-22.8" font-family="Times,serif" font-size="14.00">Surgery </text>
<text text-anchor="middle" x="76.16" y="-7.8" font-family="Times,serif" font-size="14.00"> (S)</text>
</g>
<!-- 2 -->
<g id="node2" class="node">
<title>2</title>
<polygon fill="none" stroke="black" points="126.66,-182 25.66,-182 25.66,-144 126.66,-144 126.66,-182"/>
<text text-anchor="middle" x="76.16" y="-166.8" font-family="Times,serif" font-size="14.00">Phys. Therapy </text>
<text text-anchor="middle" x="76.16" y="-151.8" font-family="Times,serif" font-size="14.00"> (PT)</text>
</g>
<!-- 1&#45;&gt;2 -->
<g id="edge1" class="edge">
<title>1&#45;&gt;2</title>
<path fill="none" stroke="black" d="M71.4,-38.12C69.05,-62.54 68.78,-105.06 70.6,-133.61"/>
<polygon fill="black" stroke="black" points="67.13,-134.1 71.39,-143.8 74.1,-133.56 67.13,-134.1"/>
<text text-anchor="middle" x="35.5" y="-89.66" font-family="Times,serif" font-size="14.00">$$f_{1,3}$$</text>
</g>
<!-- 4 -->
<g id="node4" class="node">
<title>4</title>
<polygon fill="none" stroke="black" points="255.66,-182 184.66,-182 184.66,-144 255.66,-144 255.66,-182"/>
<text text-anchor="middle" x="220.16" y="-166.8" font-family="Times,serif" font-size="14.00">Self&#45;care </text>
<text text-anchor="middle" x="220.16" y="-151.8" font-family="Times,serif" font-size="14.00"> (SC)</text>
</g>
<!-- 1&#45;&gt;4 -->
<g id="edge2" class="edge">
<title>1&#45;&gt;4</title>
<path fill="none" stroke="black" d="M88.99,-38.1C110.75,-63.59 155.18,-108.56 186.32,-137.07"/>
<polygon fill="black" stroke="black" points="184.16,-139.84 193.93,-143.94 188.85,-134.64 184.16,-139.84"/>
</g>
<!-- 2&#45;&gt;1 -->
<g id="edge3" class="edge">
<title>2&#45;&gt;1</title>
<path fill="none" stroke="black" d="M80.92,-143.88C83.27,-119.46 83.54,-76.94 81.73,-48.39"/>
<polygon fill="black" stroke="black" points="85.2,-47.9 80.93,-38.2 78.22,-48.44 85.2,-47.9"/>
</g>
<!-- 3 -->
<g id="node3" class="node">
<title>3</title>
<polygon fill="none" stroke="black" points="257.66,-38 182.66,-38 182.66,0 257.66,0 257.66,-38"/>
<text text-anchor="middle" x="220.16" y="-22.8" font-family="Times,serif" font-size="14.00">Injections </text>
<text text-anchor="middle" x="220.16" y="-7.8" font-family="Times,serif" font-size="14.00"> (I)</text>
</g>
<!-- 2&#45;&gt;3 -->
<g id="edge4" class="edge">
<title>2&#45;&gt;3</title>
<path fill="none" stroke="black" d="M102.58,-143.78C130.96,-118.52 175.23,-74.26 200.64,-45.76"/>
<polygon fill="black" stroke="black" points="203.33,-47.99 207.28,-38.16 198.06,-43.39 203.33,-47.99"/>
</g>
<!-- 2&#45;&gt;4 -->
<g id="edge5" class="edge">
<title>2&#45;&gt;4</title>
<path fill="none" stroke="black" d="M126.93,-169.48C142.33,-169.88 159.14,-169.83 174.2,-169.34"/>
<polygon fill="black" stroke="black" points="174.46,-172.83 184.31,-168.93 174.18,-165.84 174.46,-172.83"/>
</g>
<!-- 3&#45;&gt;1 -->
<g id="edge6" class="edge">
<title>3&#45;&gt;1</title>
<path fill="none" stroke="black" d="M182.33,-19C162.74,-19 138.77,-19 118.56,-19"/>
<polygon fill="black" stroke="black" points="118.38,-15.5 108.38,-19 118.38,-22.5 118.38,-15.5"/>
</g>
<!-- 3&#45;&gt;2 -->
<g id="edge7" class="edge">
<title>3&#45;&gt;2</title>
<path fill="none" stroke="black" d="M193.75,-38.22C165.37,-63.48 121.1,-107.74 95.68,-136.24"/>
<polygon fill="black" stroke="black" points="92.99,-134.01 89.05,-143.84 98.26,-138.61 92.99,-134.01"/>
</g>
<!-- 3&#45;&gt;4 -->
<g id="edge8" class="edge">
<title>3&#45;&gt;4</title>
<path fill="none" stroke="black" d="M215.4,-38.12C213.05,-62.54 212.78,-105.06 214.6,-133.61"/>
<polygon fill="black" stroke="black" points="211.13,-134.1 215.39,-143.8 218.1,-133.56 211.13,-134.1"/>
</g>
<!-- 4&#45;&gt;1 -->
<g id="edge9" class="edge">
<title>4&#45;&gt;1</title>
<path fill="none" stroke="black" d="M207.34,-143.9C185.57,-118.41 141.15,-73.44 110.01,-44.93"/>
<polygon fill="black" stroke="black" points="112.16,-42.16 102.4,-38.06 107.47,-47.36 112.16,-42.16"/>
</g>
<!-- 4&#45;&gt;2 -->
<g id="edge10" class="edge">
<title>4&#45;&gt;2</title>
<path fill="none" stroke="black" d="M184.57,-157.08C170.29,-156.37 153.42,-156.11 137.29,-156.32"/>
<polygon fill="black" stroke="black" points="136.77,-152.83 126.83,-156.52 136.9,-159.83 136.77,-152.83"/>
</g>
<!-- 4&#45;&gt;3 -->
<g id="edge11" class="edge">
<title>4&#45;&gt;3</title>
<path fill="none" stroke="black" d="M224.92,-143.88C227.27,-119.46 227.54,-76.94 225.73,-48.39"/>
<polygon fill="black" stroke="black" points="229.2,-47.9 224.93,-38.2 222.22,-48.44 229.2,-47.9"/>
</g>
</g>
</svg>
