<?xml version="1.0" encoding="UTF-8" standalone="no"?>
<!DOCTYPE svg PUBLIC "-//W3C//DTD SVG 1.1//EN"
 "http://www.w3.org/Graphics/SVG/1.1/DTD/svg11.dtd">
<!-- Generated by graphviz version 2.48.0 (20210717.1556)
 -->
<!-- Pages: 1 -->
<svg width="240pt" height="190pt"
 viewBox="0.00 0.00 240.00 190.00" xmlns="http://www.w3.org/2000/svg" xmlns:xlink="http://www.w3.org/1999/xlink">
<g id="graph0" class="graph" transform="scale(1 1) rotate(0) translate(4 186)">
<polygon fill="white" stroke="transparent" points="-4,4 -4,-186 236,-186 236,4 -4,4"/>
<!-- 1 -->
<g id="node1" class="node">
<title>1</title>
<polygon fill="none" stroke="black" points="82.5,-38 18.5,-38 18.5,0 82.5,0 82.5,-38"/>
<text text-anchor="middle" x="50.5" y="-22.8" font-family="Times,serif" font-size="14.00">Surgery </text>
<text text-anchor="middle" x="50.5" y="-7.8" font-family="Times,serif" font-size="14.00"> (S)</text>
</g>
<!-- 2 -->
<g id="node2" class="node">
<title>2</title>
<polygon fill="none" stroke="black" points="101,-182 0,-182 0,-144 101,-144 101,-182"/>
<text text-anchor="middle" x="50.5" y="-166.8" font-family="Times,serif" font-size="14.00">Phys. Therapy </text>
<text text-anchor="middle" x="50.5" y="-151.8" font-family="Times,serif" font-size="14.00"> (PT)</text>
</g>
<!-- 1&#45;&gt;2 -->
<g id="edge1" class="edge">
<title>1&#45;&gt;2</title>
<path fill="none" stroke="black" d="M45.74,-38.12C43.39,-62.54 43.12,-105.06 44.94,-133.61"/>
<polygon fill="black" stroke="black" points="41.46,-134.1 45.73,-143.8 48.44,-133.56 41.46,-134.1"/>
</g>
<!-- 3 -->
<g id="node3" class="node">
<title>3</title>
<polygon fill="none" stroke="black" points="232,-38 157,-38 157,0 232,0 232,-38"/>
<text text-anchor="middle" x="194.5" y="-22.8" font-family="Times,serif" font-size="14.00">Injections </text>
<text text-anchor="middle" x="194.5" y="-7.8" font-family="Times,serif" font-size="14.00"> (I)</text>
</g>
<!-- 1&#45;&gt;3 -->
<g id="edge2" class="edge">
<title>1&#45;&gt;3</title>
<path fill="none" stroke="black" d="M82.82,-24.74C101.7,-25.81 125.88,-26.03 146.91,-25.39"/>
<polygon fill="black" stroke="black" points="147.08,-28.89 156.94,-25.01 146.82,-21.89 147.08,-28.89"/>
</g>
<!-- 4 -->
<g id="node4" class="node">
<title>4</title>
<polygon fill="none" stroke="black" points="230,-182 159,-182 159,-144 230,-144 230,-182"/>
<text text-anchor="middle" x="194.5" y="-166.8" font-family="Times,serif" font-size="14.00">Self&#45;care </text>
<text text-anchor="middle" x="194.5" y="-151.8" font-family="Times,serif" font-size="14.00"> (SC)</text>
</g>
<!-- 1&#45;&gt;4 -->
<g id="edge3" class="edge">
<title>1&#45;&gt;4</title>
<path fill="none" stroke="black" d="M63.33,-38.1C85.09,-63.59 129.51,-108.56 160.66,-137.07"/>
<polygon fill="black" stroke="black" points="158.5,-139.84 168.27,-143.94 163.19,-134.64 158.5,-139.84"/>
</g>
<!-- 2&#45;&gt;1 -->
<g id="edge4" class="edge">
<title>2&#45;&gt;1</title>
<path fill="none" stroke="black" d="M55.26,-143.88C57.61,-119.46 57.88,-76.94 56.06,-48.39"/>
<polygon fill="black" stroke="black" points="59.54,-47.9 55.27,-38.2 52.56,-48.44 59.54,-47.9"/>
</g>
<!-- 2&#45;&gt;3 -->
<g id="edge5" class="edge">
<title>2&#45;&gt;3</title>
<path fill="none" stroke="black" d="M76.92,-143.78C105.3,-118.52 149.57,-74.26 174.98,-45.76"/>
<polygon fill="black" stroke="black" points="177.67,-47.99 181.62,-38.16 172.4,-43.39 177.67,-47.99"/>
</g>
<!-- 2&#45;&gt;4 -->
<g id="edge6" class="edge">
<title>2&#45;&gt;4</title>
<path fill="none" stroke="black" d="M101.27,-169.48C116.66,-169.88 133.48,-169.83 148.54,-169.34"/>
<polygon fill="black" stroke="black" points="148.8,-172.83 158.65,-168.93 148.51,-165.84 148.8,-172.83"/>
</g>
<!-- 3&#45;&gt;1 -->
<g id="edge7" class="edge">
<title>3&#45;&gt;1</title>
<path fill="none" stroke="black" d="M156.67,-12.98C137.08,-12.08 113.1,-12.01 92.9,-12.79"/>
<polygon fill="black" stroke="black" points="92.54,-9.3 82.72,-13.27 92.87,-16.29 92.54,-9.3"/>
</g>
<!-- 3&#45;&gt;2 -->
<g id="edge8" class="edge">
<title>3&#45;&gt;2</title>
<path fill="none" stroke="black" d="M168.08,-38.22C139.7,-63.48 95.43,-107.74 70.02,-136.24"/>
<polygon fill="black" stroke="black" points="67.33,-134.01 63.38,-143.84 72.6,-138.61 67.33,-134.01"/>
</g>
<!-- 3&#45;&gt;4 -->
<g id="edge9" class="edge">
<title>3&#45;&gt;4</title>
<path fill="none" stroke="black" d="M189.74,-38.12C187.39,-62.54 187.12,-105.06 188.94,-133.61"/>
<polygon fill="black" stroke="black" points="185.46,-134.1 189.73,-143.8 192.44,-133.56 185.46,-134.1"/>
</g>
<!-- 4&#45;&gt;1 -->
<g id="edge10" class="edge">
<title>4&#45;&gt;1</title>
<path fill="none" stroke="black" d="M181.67,-143.9C159.91,-118.41 115.49,-73.44 84.34,-44.93"/>
<polygon fill="black" stroke="black" points="86.5,-42.16 76.73,-38.06 81.81,-47.36 86.5,-42.16"/>
</g>
<!-- 4&#45;&gt;2 -->
<g id="edge11" class="edge">
<title>4&#45;&gt;2</title>
<path fill="none" stroke="black" d="M158.9,-157.08C144.63,-156.37 127.75,-156.11 111.63,-156.32"/>
<polygon fill="black" stroke="black" points="111.1,-152.83 101.17,-156.52 111.24,-159.83 111.1,-152.83"/>
</g>
<!-- 4&#45;&gt;3 -->
<g id="edge12" class="edge">
<title>4&#45;&gt;3</title>
<path fill="none" stroke="black" d="M199.26,-143.88C201.61,-119.46 201.88,-76.94 200.06,-48.39"/>
<polygon fill="black" stroke="black" points="203.54,-47.9 199.27,-38.2 196.56,-48.44 203.54,-47.9"/>
</g>
</g>
</svg>
